<svg width="49" height="44" viewBox="0 0 49 44" fill="none" xmlns="http://www.w3.org/2000/svg">
<path fill-rule="evenodd" clip-rule="evenodd" d="M4.12213 32.8769C4.60545 29.785 3.25319 26.6156 1.79811 23.6995C1.60829 23.3194 1.41741 22.9435 1.22904 22.5726C0.830641 21.7882 0.443482 21.0259 0.101358 20.2922C-0.00147482 20.0699 -0.0271831 19.8165 0.0293751 19.5735L0.949732 15.7164C1.03714 15.3441 1.31479 15.0442 1.67985 14.9305C3.6491 14.31 9.93735 12.0764 10.5029 8.79322C10.5132 8.72601 10.5492 8.66913 10.5955 8.6226L15.9582 3.42636C16.092 3.2971 16.3079 3.31261 16.4262 3.45738C16.9301 4.09334 18.3337 5.51003 20.4212 4.81202L19.7733 4.15539C19.6448 4.0313 19.65 3.82448 19.7785 3.70039L22.2311 1.37372C22.2876 1.31684 22.3647 1.28582 22.447 1.28582H29.923C30.1904 1.28582 30.3394 1.60121 30.1698 1.80803L27.7686 4.73964C27.6504 4.88958 27.6812 5.10674 27.8406 5.21014C28.3202 5.52389 29.3175 6.17875 30.372 6.87121C31.1944 7.41119 32.0516 7.97404 32.7252 8.41578C33.5068 8.92765 34.5609 8.60709 34.9155 7.73846C35.3115 6.7716 35.6816 5.26702 35.6868 3.02824C35.6868 2.99205 35.692 2.95069 35.7073 2.91449L36.746 0.21555C36.8436 -0.0326286 37.183 -0.0584805 37.3167 0.174187C37.8258 1.06349 38.7358 2.95069 38.7358 5.15327L39.2345 4.79134C39.3734 4.68794 39.5687 4.71896 39.6716 4.85339L40.7616 6.28042C40.8079 6.34246 40.8284 6.42519 40.8233 6.50274C40.7513 7.27313 40.5508 11.518 44.258 13.2191C44.3248 13.2501 44.3814 13.3018 44.4122 13.369L48.9369 22.4689C48.9575 22.5155 48.9677 22.562 48.9677 22.6137V26.445C48.9677 27.0292 48.7209 27.5825 48.2838 27.9702C46.51 29.5524 41.8722 33.942 41.5894 36.9822C41.574 37.1425 41.4403 37.2666 41.2758 37.2666H33.3011C33.2497 37.2666 33.1983 37.2563 33.152 37.2304C32.6378 36.9513 29.923 33.3734 29.3729 29.904C29.3317 29.6454 29.0078 29.5472 28.8279 29.7437L27.0436 31.7291C26.8791 31.9152 26.6426 32.0187 26.3958 32.0187C26.1232 32.0187 25.8919 31.8222 25.8457 31.5533C25.64 30.3434 24.7248 27.1792 20.8891 27.1792C18.8324 27.1792 15.6292 27.9754 12.6573 28.8751C12.6573 28.8751 9.36663 29.9091 6.93462 33.2182C6.85236 33.3319 6.71867 33.3992 6.57471 33.3992H4.56946C4.29181 33.3992 4.081 33.151 4.12213 32.8769ZM40.5199 43.2022C40.3503 43.8691 39.5739 44.169 39.0031 43.7812C37.9543 43.0677 36.3706 41.8217 34.936 39.9913C34.7253 39.7225 34.9155 39.3244 35.26 39.3244H40.9673C41.2397 39.3244 41.4351 39.5777 41.3683 39.8414L40.5199 43.2022Z" fill="#0E8784"/>
</svg>
