<svg width="42" height="51" viewBox="0 0 42 51" fill="none" xmlns="http://www.w3.org/2000/svg">
<path fill-rule="evenodd" clip-rule="evenodd" d="M6.01893 6.96796L6.01892 6.96795C5.97902 6.94583 5.93866 6.92345 5.89443 6.89397H5.90277C5.9055 6.88941 5.90883 6.88455 5.91237 6.8794L5.91238 6.87938C5.91962 6.86883 5.92772 6.85703 5.93332 6.84397C5.94443 6.8398 5.95624 6.83633 5.96804 6.83286L5.96806 6.83285C5.97986 6.82938 5.99166 6.82591 6.00277 6.82174C6.06806 6.86838 6.09076 6.91753 6.11461 6.96918C6.12627 6.99444 6.13821 7.02029 6.15554 7.04674C8.61943 8.59397 9.99721 7.76341 10.9611 5.60508C11.0944 5.29397 11.2222 4.95786 11.3472 4.59952C12.4857 1.25575 15.164 1.21505 17.7544 1.17568C18.5835 1.16309 19.4035 1.15063 20.1611 1.03008C21.9889 0.743967 21.4055 2.44674 20.6139 3.26619C20.3525 3.54016 20.0454 3.77081 19.7274 4.00969C18.9264 4.61126 18.0559 5.265 17.6722 6.79397C18.4109 6.79397 19.1181 6.79859 19.8036 6.80307C21.3092 6.81291 22.7101 6.82207 24.1111 6.78008C26.7305 6.7023 27.175 7.65508 25.7305 9.77452C25.4142 10.2417 25.1583 10.7523 24.9029 11.2618L24.9029 11.2619C24.5843 11.8975 24.2666 12.5315 23.8333 13.0773C22.3194 14.9717 22.3528 16.2662 24.8361 17.1495C25.4611 17.3717 26.2667 17.9273 26.425 18.4912C27.1788 21.1624 28.9834 23.1696 30.7829 25.171C32.7765 27.3884 34.7637 29.5987 35.3083 32.6967C35.3337 32.8393 35.351 32.9713 35.3668 33.0922C35.4535 33.7535 35.4966 34.0828 36.5722 33.9912C38.4055 33.819 40.575 33.7967 41.0861 36.1356C41.5778 38.3662 39.9861 39.7856 38.2833 40.9634C38.0514 41.1219 37.8746 41.3543 37.6772 41.614L37.6771 41.614L37.6771 41.6141C37.5908 41.7276 37.5005 41.8462 37.4 41.9662C37.5571 42.6515 38.151 42.6697 38.707 42.6867C39.262 42.7037 39.7792 42.7196 39.7861 43.3967C39.7972 44.5245 38.5889 45.0495 37.7528 45.3079C33.4889 46.6329 28.9972 47.0829 24.625 46.994C22.2911 46.9425 20.2482 47.6884 18.2163 48.4303C16.7417 48.9687 15.2728 49.5051 13.7028 49.7329C13.4728 49.7672 13.2471 49.8186 13.0169 49.871C12.1849 50.0604 11.2951 50.2629 9.94165 49.719C11.5466 49.1361 12.6068 47.9544 13.6748 46.7641C15.2687 44.9877 16.8799 43.192 20.3444 43.3384C19.7379 43.0864 19.2508 42.8809 18.8417 42.7082L18.8387 42.707L18.8385 42.7069L18.8384 42.7069L18.8384 42.7069C18.0408 42.3703 17.5397 42.1589 17.0278 41.9717C14.6972 41.1301 14.3861 39.494 16.125 37.5995C17.1055 36.5356 17.7833 35.394 15.5611 34.9329C14.3395 34.6811 14.631 34.1584 14.9542 33.5789C15.1874 33.1608 15.4371 32.7131 15.1472 32.3162C14.775 31.8051 15.9972 31.6606 16.7028 31.7495C18.7917 32.019 21.7444 32.3801 20.9333 29.3273C20.8674 29.0806 20.805 28.8026 20.7384 28.5063L20.7384 28.5061L20.7383 28.5059C20.2773 26.4535 19.6182 23.5192 16.2444 23.9634C12.5889 24.444 11.4417 23.5384 13.7278 20.2217C13.2628 20.0137 12.6194 20.254 12.0027 20.4844C10.8326 20.9215 9.75853 21.3228 10.1805 18.5579C10.2055 18.3829 9.8611 17.9634 9.79165 17.9829C9.5259 18.0671 9.25433 18.3304 8.98437 18.5922L8.98436 18.5923C8.39936 19.1596 7.82194 19.7196 7.32777 18.4329C6.97516 17.5155 7.57189 17.273 8.27233 16.9883C8.98448 16.6988 9.80384 16.3658 9.84165 15.2356C9.78652 15.0567 9.37529 15.0527 8.93261 15.0484C8.19326 15.0412 7.36619 15.0332 7.96388 14.2079C9.95344 11.4628 8.43128 10.3091 6.72823 9.01841L6.72818 9.01837L6.72802 9.01825C6.55271 8.88538 6.37549 8.75107 6.19999 8.61341C5.96979 8.43416 6.05361 8.1639 6.14325 7.8749C6.18557 7.73845 6.22918 7.59783 6.24165 7.46063C6.24165 7.45647 6.24027 7.45092 6.23888 7.44536L6.23888 7.44536C6.23749 7.4398 6.2361 7.43424 6.2361 7.43008C6.24443 7.29952 6.23054 7.16619 6.14999 7.04674C6.104 7.01513 6.06172 6.99169 6.01894 6.96796L6.01893 6.96796ZM1.47777 27.1856C0.916655 27.094 0.277766 26.5051 0.338877 25.6579C0.461099 24.1023 5.20277 20.9329 7.30832 21.0579C9.24746 21.1646 9.8728 22.4824 10.4606 23.7212C10.6988 24.2232 10.9308 24.7122 11.2417 25.1023C11.15 26.9356 10.0417 27.9717 8.84999 27.9773C6.50999 28.0064 4.15233 27.6218 1.82268 27.2418L1.47777 27.1856ZM8.19165 1.8773C5.56665 2.5773 4.05277 3.97174 4.23888 6.79119C2.4805 6.96414 2.99056 7.67928 3.46066 8.33839C3.53417 8.44146 3.6067 8.54315 3.66943 8.64119C3.80515 8.33243 4.04136 8.04233 4.28506 7.74303L4.28506 7.74303C4.4404 7.55226 4.59877 7.35775 4.7361 7.1523C4.89025 7.11242 5.04482 7.07169 5.19948 7.03095L5.19967 7.0309C5.44349 6.96666 5.68754 6.90237 5.93054 6.84119C6.16733 6.31917 6.57441 5.87779 6.98731 5.4301C7.82897 4.51752 8.69482 3.57873 8.19165 1.8773ZM3.57499 9.42452C3.99721 9.2773 3.88332 8.98286 3.66665 8.64119C3.55832 8.88008 3.49443 9.13008 3.57499 9.42452Z" fill="#0E8784"/>
</svg>
